Coordinates
version=1
nRows=23
nColumns=27
inDegrees=yes

Units are S.I. units (second, meters, Newtons, ...)
If the header above contains a line with 'inDegrees', this indicates whether rotational values are in degrees (yes) or radians (no).

endheader
time	pelvis_rotation	pelvis_tilt	pelvis_list	pelvis_tx	pelvis_ty	pelvis_tz	hip_flexion_r	hip_adduction_r	hip_rotation_r	knee_angle_r	knee_rotation_r	knee_adduction_r	knee_angle_r_beta	ankle_angle_r	subtalar_angle_r	mtp_angle_r	hip_flexion_l	hip_adduction_l	hip_rotation_l	knee_angle_l	knee_rotation_l	knee_adduction_l	knee_angle_l_beta	ankle_angle_l	subtalar_angle_l	mtp_angle_l
      4.26000000	     17.18830284	    -44.40392959	     10.24593149	     -0.09539456	      0.57704565	     -1.17997428	    125.80970560	    -48.30694980	     12.67717752	     88.59952445	      0.00000000	      9.30103797	      1.54635342	     10.78597156	      0.00000000	      0.00000000	    118.96940662	    -19.86955716	      3.75198728	     82.63307295	      0.00000000	     -9.88388842	      1.44221919	      3.28223528	      0.00000000	      0.00000000
      4.26500000	     17.14450558	    -44.39124736	     10.23435113	     -0.09577482	      0.57831750	     -1.18018972	    125.55158810	    -48.28743945	     12.45847587	     88.35720648	      0.00000000	      9.28968817	      1.54212417	     10.69078465	      0.00000000	      0.00000000	    118.77324389	    -19.85000435	      3.65845082	     82.41139970	      0.00000000	     -9.88261056	      1.43835027	      3.22362637	      0.00000000	      0.00000000
      4.27000000	     17.11928580	    -44.37918674	     10.24526762	     -0.09617693	      0.57955600	     -1.18039611	    125.32877509	    -48.26297890	     12.27780489	     88.11917253	      0.00000000	      9.27625763	      1.53796969	     10.59253225	      0.00000000	      0.00000000	    118.57420852	    -19.82403493	      3.55388949	     82.18402132	      0.00000000	     -9.88128030	      1.43438176	      3.16750947	      0.00000000	      0.00000000
      4.27500000	     17.10582005	    -44.40035753	     10.25295614	     -0.09661935	      0.58079447	     -1.18062038	    125.11861563	    -48.24903246	     12.07691535	     87.87126927	      0.00000000	      9.26593081	      1.53364297	     10.49402767	      0.00000000	      0.00000000	    118.41526477	    -19.78446395	      3.45884155	     81.95635323	      0.00000000	     -9.87946476	      1.43040821	      3.10479955	      0.00000000	      0.00000000
      4.28000000	     16.32441558	    -44.48767772	     10.13517524	     -0.09743915	      0.58209505	     -1.18039339	    124.85139595	    -47.24297158	     12.03005193	     87.55666375	      0.00000000	      8.71383389	      1.52815206	     10.26791383	      0.00000000	      0.00000000	    118.16636391	    -20.47295579	      3.27966654	     81.72172191	      0.00000000	     -9.77374419	      1.42631312	      3.04619652	      0.00000000	      0.00000000
      4.28500000	     17.08034787	    -44.35254545	     10.15945935	     -0.09732301	      0.58324460	     -1.18096621	    124.51901965	    -48.32330071	     11.53472367	     87.39819700	      0.00000000	      9.24126009	      1.52538630	     10.32242082	      0.00000000	      0.00000000	    118.04949094	    -19.65612142	      3.36651168	     81.50818586	      0.00000000	     -9.87681009	      1.42258621	      2.98062929	      0.00000000	      0.00000000
      4.29000000	     16.22134379	    -44.50789053	     10.14703262	     -0.09833447	      0.58448599	     -1.18071034	    124.42749231	    -47.09342942	     11.69597416	     87.08726497	      0.00000000	      8.68193949	      1.51995951	     10.13375514	      0.00000000	      0.00000000	    117.81660683	    -20.48448811	      3.06306028	     81.27197395	      0.00000000	     -9.76911604	      1.41846353	      2.92641614	      0.00000000	      0.00000000
      4.29500000	     17.02730778	    -44.34105828	     10.17428983	     -0.09814504	      0.58558264	     -1.18132607	    124.07890180	    -48.25454396	     11.18524819	     86.93308425	      0.00000000	      9.21725907	      1.51726855	     10.13554706	      0.00000000	      0.00000000	    117.68501557	    -19.61534156	      3.16723031	     81.06931006	      0.00000000	     -9.87425985	      1.41492638	      2.88016002	      0.00000000	      0.00000000
      4.30000000	     16.93379125	    -44.38436190	     10.19268063	     -0.09862858	      0.58673174	     -1.18143247	    123.91084892	    -48.09996482	     11.04223074	     86.69918383	      0.00000000	      9.20471861	      1.51318622	     10.13314658	      0.00000000	      0.00000000	    117.52887504	    -19.67763172	      3.04144472	     80.84288131	      0.00000000	     -9.87343874	      1.41097446	      2.84805016	      0.00000000	      0.00000000
      4.30500000	     16.20523562	    -44.44799274	     10.11863648	     -0.09941305	      0.58788666	     -1.18120220	    123.72085572	    -47.12368403	     11.11305702	     86.41502088	      0.00000000	      8.63358481	      1.50822664	      9.86061247	      0.00000000	      0.00000000	    117.27181724	    -20.33136643	      2.83686234	     80.62650880	      0.00000000	     -9.76203080	      1.40719804	      2.74493222	      0.00000000	      0.00000000
      4.31000000	     16.92446578	    -44.31668800	     10.22131518	     -0.09932714	      0.58893033	     -1.18173238	    123.46100128	    -48.08235866	     10.73056521	     86.25880946	      0.00000000	      9.18160186	      1.50550023	      9.90031762	      0.00000000	      0.00000000	    117.12804226	    -19.60106476	      2.84656170	     80.42021351	      0.00000000	     -9.87081166	      1.40359751	      2.71739790	      0.00000000	      0.00000000
      4.31500000	     16.92251471	    -44.30925217	     10.19147742	     -0.09968523	      0.59001366	     -1.18181701	    123.20895135	    -48.08597834	     10.51403740	     86.05415072	      0.00000000	      9.17145123	      1.50192827	      9.86377519	      0.00000000	      0.00000000	    116.97509194	    -19.54860480	      2.79861978	     80.20482317	      0.00000000	     -9.86945241	      1.39983824	      2.65669539	      0.00000000	      0.00000000
      4.32000000	     16.17523517	    -44.38186337	     10.10192605	     -0.10045570	      0.59111263	     -1.18150405	    123.01270667	    -47.07275325	     10.59210329	     85.77996201	      0.00000000	      8.58257856	      1.49714277	      9.67424774	      0.00000000	      0.00000000	    116.72846779	    -20.21946764	      2.60812171	     79.99434403	      0.00000000	     -9.75586030	      1.39616469	      2.60639735	      0.00000000	      0.00000000
      4.32500000	     16.92290995	    -44.25440952	      9.98368299	     -0.10025268	      0.59213254	     -1.18185747	    122.49589738	    -48.19860130	      9.85857416	     85.64275774	      0.00000000	      9.14969608	      1.49474810	      9.75378084	      0.00000000	      0.00000000	    116.69948602	    -19.37239870	      2.86262430	     79.78884686	      0.00000000	     -9.86670708	      1.39257808	      2.50434559	      0.00000000	      0.00000000
      4.33000000	     16.11797477	    -44.39340191	     10.11058193	     -0.10121915	      0.59314958	     -1.18160143	    122.64253227	    -46.94405318	     10.31816381	     85.37189726	      0.00000000	      8.55136873	      1.49002070	      9.48842029	      0.00000000	      0.00000000	    116.42168699	    -20.20462005	      2.43420301	     79.57738212	      0.00000000	     -9.75199974	      1.38888733	      2.49616980	      0.00000000	      0.00000000
      4.33500000	     16.92444163	    -44.18540586	     10.16125855	     -0.10093207	      0.59407895	     -1.18209790	    122.25454563	    -48.06537303	      9.82498045	     85.26265926	      0.00000000	      9.12728549	      1.48811413	      9.61217125	      0.00000000	      0.00000000	    116.25829658	    -19.37033830	      2.53006203	     79.38670010	      0.00000000	     -9.86503333	      1.38555930	      2.43997256	      0.00000000	      0.00000000
      4.34000000	     16.07926291	    -44.31124322	     10.09623773	     -0.10178439	      0.59509768	     -1.18168588	    122.17361860	    -46.88085071	     10.02689765	     84.99912024	      0.00000000	      8.52142567	      1.48351451	      9.41801438	      0.00000000	      0.00000000	    116.03903108	    -20.16319784	      2.28428224	     79.18137568	      0.00000000	     -9.74840855	      1.38197571	      2.37819761	      0.00000000	      0.00000000
      4.34500000	     16.90269927	    -44.12472566	     10.16894855	     -0.10149690	      0.59600615	     -1.18217717	    121.82230131	    -47.99930044	      9.54948843	     84.88368725	      0.00000000	      9.09737648	      1.48149982	      9.43582618	      0.00000000	      0.00000000	    115.89479077	    -19.31772518	      2.37928245	     78.99115467	      0.00000000	     -9.86298304	      1.37865573	      2.33841171	      0.00000000	      0.00000000
      4.35000000	     16.07767480	    -44.23367416	     10.08724759	     -0.10227501	      0.59699426	     -1.18174629	    121.71691151	    -46.85594996	      9.73730812	     84.63681494	      0.00000000	      8.49058449	      1.47719109	      9.30699660	      0.00000000	      0.00000000	    115.67527154	    -20.08846544	      2.14979992	     78.79506395	      0.00000000	     -9.74506659	      1.37523330	      2.27785426	      0.00000000	      0.00000000
      4.35500000	     16.92584611	    -44.03029750	     10.15017897	     -0.10192532	      0.59787006	     -1.18223784	    121.32930933	    -48.01714520	      9.22730847	     84.53931585	      0.00000000	      9.08342006	      1.47548941	      9.40984515	      0.00000000	      0.00000000	    115.53040303	    -19.21808220	      2.26389729	     78.61411943	      0.00000000	     -9.86111538	      1.37207522	      2.23610251	      0.00000000	      0.00000000
      4.36000000	     16.06905213	    -44.16475022	     10.08117625	     -0.10273288	      0.59882737	     -1.18178270	    121.27576206	    -46.81077840	      9.46801833	     84.28748407	      0.00000000	      8.45295242	      1.47109412	      9.21606739	      0.00000000	      0.00000000	    115.32347868	    -20.02137378	      2.02304573	     78.41873844	      0.00000000	     -9.74154390	      1.36866518	      2.17716741	      0.00000000	      0.00000000
      4.36500000	     16.69153050	    -44.03386472	     10.19357563	     -0.10252912	      0.59967054	     -1.18221577	    121.03670181	    -47.63436912	      9.12614596	     84.17485326	      0.00000000	      9.04728778	      1.46912834	      9.25660571	      0.00000000	      0.00000000	    115.18157185	    -19.42255596	      2.00864020	     78.25069426	      0.00000000	     -9.85994640	      1.36573226	      2.14567520	      0.00000000	      0.00000000
      4.37000000	     16.91902252	    -43.92204404	     10.15379725	     -0.10250854	      0.60056534	     -1.18229439	    120.67154228	    -47.94249386	      8.84245914	     84.03092271	      0.00000000	      9.04657511	      1.46661627	      9.28223300	      0.00000000	      0.00000000	    115.00134128	    -19.12279030	      2.07064257	     78.06474703	      0.00000000	     -9.85807934	      1.36248687	      2.10084155	      0.00000000	      0.00000000
